Patient4_TMGait_0pt2_01_right_18_EMG.mot
version=1
nRows=36
nColumns=33
inDegrees=no
endheader
time	1LAddLong	2LGlutMax	3LGlutMed	4LIliopsoas	5LSemiMemb	6LBicFemLong	7LRecFem	8LVastMed	9LVastLat	10LGasMed	11LTibAnt	12lTibPost	13LPeroneusLong	14LSol	15LExtDigLong	16LFlexDigLong	17RAddLong	18RGlutMax	19RGlutMed	20RIliopsoas	21RSemiMemb	22RBicFemLong	23RRecFem	24RVastMed	25RVastLat	26RGasMed	27RTibAnt	28RTibPost	29RPeroneusLong	30RSol	31RExtDigLong	32RFlexDigLong
42.708	0.022278	0.042114	-0.07431	0.014038	0.041046	-0.027618	-0.11063	0.079193	0.22201	-0.1326	-0.011292	-0.015259	0.066223	-0.35934	-0.023041	0.96878	0.006409	-0.035095	-0.4538	-0.15961	0.050659	0.062714	-0.072327	-0.083771	0.014648	-0.002899	-0.12039	-0.00824	-0.032959	-0.00061	-0.001068	-0.011292
42.709	0.030365	0.06073	0.068665	0.030518	0.022888	0.014343	-0.046692	0.054016	0.23254	-0.019531	-0.01236	-0.036316	0.081482	-0.26398	0.014801	-0.39795	0.002441	-0.018463	-0.097351	-0.12802	-0.090637	0.033569	-0.046692	-0.093842	0.006256	-0.001984	0.14725	-0.007019	-0.004883	-0.014648	-0.006714	-0.014954
42.71	0.019073	0.027161	0.040588	0.028076	0.00824	0.039673	0.065765	0.021973	0.30167	0.17929	-0.017395	-0.020599	0.078735	-0.12421	0.007477	-0.034027	0.024261	-0.006409	-0.60013	-0.089264	-0.10742	-0.001373	-0.044098	-0.091553	-0.010376	-0.001526	-0.003967	-0.008392	-0.002594	0.028229	-0.003204	-0.01358
42.711	0.014343	0.02182	-0.033264	0.01236	-0.008392	0.034485	0.02243	-0.015259	0.30472	0.2214	-0.006714	-0.003662	0.081329	-0.035706	-0.010223	0.25024	0.044861	0.007629	-0.98633	0.024719	0.074463	0.005646	-0.019226	-0.095978	0.011139	-0.003815	-0.88379	-0.007935	0.073853	0.005341	0.000153	-0.010071
42.712	0.005035	-0.034637	-0.031586	0.003052	0.009003	0.059509	0.010529	-0.040436	0.27741	0.17548	-0.013885	0.009766	0.006104	0.090179	-0.017242	0.06012	0.034027	0.015717	-0.52155	0.12192	0.16708	0.018921	-0.072174	-0.092316	0.010834	-0.004578	-0.76538	-0.011902	0.12268	-0.054626	-0.001831	-0.007782
42.713	-0.014801	-0.014191	0.03006	0.002899	0.021362	0.079193	0.009766	-0.027466	0.35431	0.15823	-0.000458	-0.029755	-0.040894	0.058899	-0.008698	-0.11459	0.010986	0.032043	-0.25986	0.26291	0.069275	0.035706	-0.090485	-0.065002	0.023804	0.000305	-0.50552	-0.002441	0.088196	-0.096436	-0.003662	-0.018463
42.714	-0.031738	-0.024261	0.19196	-0.005798	-0.10925	0.1059	0.008698	-0.040588	0.23361	0.10651	0.037689	-0.011902	-0.027924	-0.13245	-0.011444	-0.051727	-0.028992	0.018921	-0.48477	0.22903	0.036926	0.079041	-0.054016	-0.018768	0.034332	0.002747	-0.1973	-0.007782	0.046692	-0.13275	-0.002899	-0.010223
42.715	-0.007477	-0.059052	0.11078	0	-0.16068	0.015564	-0.020599	-0.032501	-0.14664	0.065613	0.02182	0.030823	-0.043945	-0.018616	0.003967	-0.016937	-0.040588	0.02243	0.091248	0.078278	0.067596	0.070496	0.035858	0.031586	0.017548	0.000763	0.062866	-0.008545	-0.023193	-0.14236	-0.002136	-0.00824
42.716	0.012512	-0.075073	0.06134	0.024414	-0.032501	-0.074463	-0.16327	-0.027161	-0.29144	0.002899	-0.016327	0.078125	-0.037231	0.084686	0	-0.027618	-0.021667	0.070648	0.52368	0.008698	0.035553	0.044708	0.063019	0.049438	0.014038	-0.00473	0.32471	0.001678	-0.063171	-0.068817	-0.002747	0.002136
42.717	-0.007172	-0.093842	-0.056915	-0.006561	0.10483	-0.070953	-0.16769	-0.026855	-0.16632	-0.035706	-0.073547	0.032043	0.008087	0.20233	-0.006866	-0.061951	-0.015106	0.081024	-0.21896	0.057983	0.028534	0.044708	0.034027	0.032196	0.0354	-0.000458	0.30716	0.000305	-0.15747	-0.081024	-0.004578	0.001984
42.718	-0.024719	-0.13199	-0.17548	-0.012054	0.14114	-0.041351	-0.12009	-0.033722	0.080109	-0.055237	0.031738	-0.018768	0.028381	0.001678	0.043793	-0.032501	0.007477	0.032501	-0.8699	0.16602	0.067596	0.066223	-0.018616	0.030975	0.018158	-0.00473	0.50674	0.000763	-0.17746	-0.1001	-0.002441	0.003662
42.719	-0.003967	-0.11673	-0.18753	-0.009003	0.10025	-0.012665	-0.022278	-0.03067	0.15656	-0.06958	0.10101	-0.006561	0.028992	-0.068665	0.039978	-0.020447	0.0177	0.082245	-0.68893	0.14648	0.14252	0.055542	0.0177	0	0.021515	-0.004883	0.18341	-0.003967	-0.17578	-0.16678	-0.007629	-0.000153
42.72	0.002289	-0.11597	-0.20065	0.010376	0.050964	0.022736	-0.014954	-0.00412	0.068817	-0.02121	-0.042572	-0.005493	0.042877	-0.093231	0.037994	-0.023651	0.05661	0.12589	-0.10468	0.08728	0.037537	0.027161	0.018311	-0.03067	0.034027	-0.003204	-0.10315	-0.005646	-0.20157	-0.11093	-0.003815	-0.001526
42.721	0.001526	-0.1561	-0.13672	0.016022	0.049896	0.023651	0.023499	-0.011444	-0.066528	-0.014496	-0.051727	0.003052	-0.028839	-0.008087	0.023804	-0.033264	0.092926	0.10361	0.39002	0.055695	0.030365	0.04715	0.040588	-0.063019	0.040894	-0.009613	-0.35385	-0.002747	-0.10956	-0.049438	-0.006104	-0.007019
42.722	-0.01236	-0.19211	-0.053101	0.027924	0.065613	0.015259	0.068359	0.006409	-0.040894	-0.013275	-0.054474	0.007019	-0.057373	0.13626	-0.000305	-0.036774	0.11673	0.027161	-0.39719	0.036316	0.046387	0.034027	0.02182	-0.10605	0.038147	-0.001678	-0.56137	-0.003815	0.019989	-0.10407	-0.007477	0.001373
42.723	-0.006256	-0.1712	-0.007324	0.029144	-0.004578	-0.012207	-0.009003	0.00946	0.082703	-0.11948	-0.037537	-0.009613	-0.041351	0.25452	0.007019	-0.077362	0.13367	0.086975	-0.65491	0.004883	0.049133	0.00885	-0.017395	-0.073547	0.040588	0.002747	-0.42297	-0.001221	0.15243	-0.14236	-0.004578	0.001373
42.724	0.000153	-0.042572	0.19241	0.010681	0.014954	-0.09552	0.027618	-0.014038	0.12726	-0.16449	0.003815	-0.010986	-0.040131	0.3093	0.010986	-0.044556	0.10529	0.12924	-0.12482	-0.05722	0.048523	0.027161	-0.025177	-0.066376	0.034485	0.002289	-0.23727	-0.007935	0.18585	-0.068512	0	-0.005188
42.725	-0.005951	0.01358	0.15579	-0.01297	0.037537	-0.067902	0.065765	-0.007935	0.005646	-0.072784	-0.010071	-0.072479	-0.057678	0.009003	0.032196	-0.048065	0.04303	0.10071	0.28809	-0.14221	0.012207	0.081024	-0.094452	-0.11597	0.034485	-0.001831	0.31067	-0.010071	0.093994	0.073242	0.000153	-0.00351
42.726	-0.017548	0.005341	-0.050659	-0.019684	0.019073	0.004425	0.079956	-0.002289	-0.18967	0.10223	-0.007477	-0.023193	-0.21729	-0.11032	0.014343	-0.025787	0.007935	0.098114	-0.23666	-0.16174	0.030975	0.13504	-0.11704	-0.1265	0.046997	0.003815	0.79559	-0.009308	-0.012054	0.12619	-0.003204	-0.001373
42.727	-0.021362	0.013123	-0.11124	-0.018921	-0.022125	0.035858	0.038605	-0.00061	-0.21881	0.23911	0.003815	-0.13565	-0.49133	0.10925	0.010223	0.052338	-0.028534	0.066986	-0.6517	-0.15778	0.020142	0.12665	-0.11734	-0.10635	0.049591	0.003204	0.7518	-0.009308	-0.12863	0.10544	-0.004272	-0.010529
42.728	-0.021515	0.036163	-0.064392	-0.011902	-0.072632	0.023041	-0.065155	0.020142	-0.18356	0.23865	-0.00473	-0.1857	-0.49622	0.32883	0.024109	-0.22995	-0.034637	0.071411	-0.34622	-0.098877	0.044403	0.094757	-0.16129	-0.087585	0.041199	-0.001526	0.5867	-0.013885	-0.067291	0.10391	-0.005646	-0.011902
42.729	-0.003357	0.011139	0.13062	0.008545	-0.042267	-0.032806	-0.19119	0.041046	-0.13519	0.26337	-0.002747	0.094147	-0.23666	0.58121	0.006561	0.12344	-0.046539	0.044708	-0.16892	-0.070801	0.094604	0.095673	-0.16434	-0.015717	0.044403	-0.00824	0.017548	-0.007629	-0.099945	0.072784	-0.005341	-0.012054
42.73	0.022583	0.041656	0.1445	-0.00351	0.056305	-0.059967	-0.28091	0.067139	-0.07782	-0.096893	-0.020905	0.30868	0.14679	0.95169	-0.001221	-0.11597	-0.038757	0.017548	0.12695	-0.050812	0.077972	0.072479	-0.080719	-0.004272	0.044861	-0.00061	-0.20004	-0.009155	-0.082245	0.042114	0	-0.008698
42.731	0.033264	0.089111	0.10376	0.032501	0.073395	-0.035858	-0.29266	0.061951	-0.074158	-0.18555	-0.024109	0.20721	0.34653	-0.016785	-0.026245	-0.10346	-0.02533	0.002441	-0.24963	-0.098877	-0.009308	0.098267	-0.015564	0.03067	0.033417	-0.000458	-0.069122	-0.00946	-0.074005	-0.012665	-0.003052	-0.010376
42.732	0.045319	0.074463	0.17273	0.040588	0.027008	-0.010376	-0.27237	0.028381	0.076294	-0.13306	-0.017853	0.065308	0.29953	-0.69672	-0.040283	-0.79742	-0.00885	0.005493	-0.64865	-0.076904	0.00061	0.099335	0.014038	0.044403	0.046082	0.000305	0.073853	-0.011444	-0.079498	-0.027161	0.001373	-0.002441
42.733	0.054169	0.091553	0.31677	0.005951	0.028687	-0.035095	-0.3186	-0.006714	0.28885	-0.008392	-0.003967	0.022736	0.15991	-0.36728	-0.088654	0.64179	0.032654	0.020447	-0.23529	-0.071411	0.021973	0.049591	0.096436	-0.010986	0.038147	0.002289	0.15243	-0.007477	-0.11368	-0.046539	0.001526	-0.001221
42.734	0.044861	0.063019	0.16037	0.020905	0.043945	0.010223	-0.15656	-0.026398	0.34195	0.016174	-0.005798	0.002289	0.18509	0.032043	-0.073853	-0.2005	0.044098	0.037537	-0.27344	0.024414	0.050659	-0.004425	0.10986	0.003967	0.015869	0.001984	0.14877	-0.007324	0.092316	-0.065155	0.000916	-0.007324
42.735	0.024567	0.047302	-0.003357	0.005188	0.054169	-0.002747	0.027924	-0.024567	0.17761	0.022278	-0.00885	-0.006409	0.11444	0.29251	-0.063171	0.052032	0.03006	0.023041	-0.87509	0.17166	0.03891	0.019531	0.11871	-0.046997	0.018616	-0.003357	0.080414	-0.002136	0.31708	-0.033722	-0.00473	-0.001984
42.736	0.019531	0.04837	-0.11856	-0.003967	0.034637	0.008087	0.055237	-0.025482	-0.065918	0.019531	0.005646	-0.14954	0.081482	-0.33112	-0.037994	0.48386	-0.011597	0.019073	-0.94376	0.084534	0.010071	0.045776	0.065155	-0.061951	0.0177	-0.010834	-0.26016	-0.003967	0.18173	-0.03006	0.000763	-0.011444
42.737	0.005188	0.002289	-0.051727	0.023804	0.027008	0.022736	0.094452	-0.032043	-0.40634	0.010986	-0.003204	0.12528	0.02243	-0.76721	-0.003357	0.074158	-0.032806	0.048828	0.17838	0.030212	-0.029602	0.094299	0.042267	-0.057068	0.046844	-0.010986	-0.47897	0.000305	0.037842	-0.059204	0	-0.001526
42.738	0.003815	-0.090485	-0.06897	0.016632	-0.001831	0.020447	0.076904	-0.042114	-0.32044	0.067444	-0.005035	0.098114	-0.050964	-1.0077	0.026855	0.027924	-0.053406	-0.003204	1.2636	-0.037689	-0.048065	0.10437	0.033112	-0.044708	0.06485	-0.011902	0.1387	-0.010681	-0.31036	-0.077667	-0.001526	0.005951
42.739	-0.003815	-0.14938	-0.14694	-0.003967	0.00885	0.018311	0.019073	-0.023346	-0.079803	0.0383	-0.006256	0.00061	-0.10574	-0.86273	0.034943	0.12741	-0.081329	-0.008392	0.70862	-0.001678	-0.074921	0.1004	0.01358	-0.020142	0.055695	-0.004425	0.56992	-0.002136	-0.31296	-0.10635	-0.00061	0.00473
42.74	0.001831	-0.084229	-0.16525	-0.011597	0.013123	0.007782	-0.059357	0.01358	0.029449	0.015411	-0.007935	-0.25406	-0.11231	-0.31357	0.045471	0.051727	-0.12741	-0.003204	0.46539	0.097656	-0.067596	0.10468	-0.00885	-0.041046	0.034943	-0.000458	0.59647	-0.000763	-0.14114	-0.16266	0.001373	-0.00351
42.741	-0.007629	-0.038605	-0.11017	-0.005188	-0.007629	0.019989	-0.023499	0.018616	0.10757	0.042877	-0.008392	-0.031433	-0.11826	0.044098	0.068054	0.005646	-0.13123	-0.085144	-0.39993	0.081329	0.074921	0.11963	-0.006866	-0.007477	0.065918	0.00473	0.20966	-0.005798	-0.22812	-0.23285	-0.001831	0.000458
42.742	-0.010223	-0.06134	-0.043182	0.007477	-0.020142	0.007782	0.007172	0.018158	0.054016	0.071259	-0.000763	0.28931	-0.054474	-0.007172	0.030518	0.01236	-0.092163	-0.033722	-0.056915	-0.007019	0.22751	0.09964	-0.022736	0.050201	0.050354	0.013428	-0.15656	-0.002136	0.074768	-0.2626	-0.00412	0.00885
42.743	-0.029755	-0.055084	-0.032806	0.014191	-0.035706	0.027618	0.003357	0.019226	-0.054779	0.099335	-0.000916	0.16007	0.096893	0.13657	0.023041	-0.026703	-0.076447	-0.009918	0.32959	0.014038	-0.10635	0.074921	0.009918	0.034027	0.011139	0.021667	0.062103	0.000305	0.3212	-0.32379	-0.00412	-0.007324
